ISO-10303-21;
HEADER;
/* Generated by software containing ST-Developer
 * from STEP Tools, Inc. (www.steptools.com) 
 */
/* OPTION: using custom renumber hook */

FILE_DESCRIPTION(
/* description */ ('STEP AP242 Edition 2',
'CAx-IF Rec.Pracs.---Representation and Presentation of Product Manufa
cturing Information (PMI)---4.0---2014-10-13',
'CAx-IF Rec.Pracs.---3D Tessellated Geometry---0.4---2014-09-14','2;1',
'CAx-IF Rec.Pracs.---User Defined Attributes---1.5---2016-08-15'),
/* implementation_level */ '2;1');

FILE_NAME(
/* name */ 'uhub_pcb - Part 231',
/* time_stamp */ '2026-05-27T00:09:19Z',
/* author */ (''),
/* organization */ (''),
/* preprocessor_version */ 'ST-DEVELOPER v20',
/* originating_system */ 'ONSHAPE BY PTC INC, 1.215',
/* authorisation */ '  ');

FILE_SCHEMA (('AP242_MANAGED_MODEL_BASED_3D_ENGINEERING_MIM_LF { 1 0 10303 442 3 1 4 }'));
ENDSEC;

DATA;
#10=SHAPE_REPRESENTATION_RELATIONSHIP('','',#841,#11);
#11=ADVANCED_BREP_SHAPE_REPRESENTATION('',(#839),#1417);
#12=ELLIPSE('',#900,0.00141421356237309,0.001);
#13=ELLIPSE('',#902,0.00141421356237309,0.001);
#14=B_SPLINE_CURVE_WITH_KNOTS('',3,(#1373,#1374,#1375,#1376,#1377),
 .UNSPECIFIED.,.F.,.F.,(4,1,4),(0.,0.000786755685550657,0.00157351137110131),
 .UNSPECIFIED.);
#15=B_SPLINE_CURVE_WITH_KNOTS('',3,(#1380,#1381,#1382,#1383,#1384),
 .UNSPECIFIED.,.F.,.F.,(4,1,4),(0.,0.000786781952340571,0.00157356390468114),
 .UNSPECIFIED.);
#16=B_SPLINE_CURVE_WITH_KNOTS('',3,(#1387,#1388,#1389,#1390,#1391),
 .UNSPECIFIED.,.F.,.F.,(4,1,4),(0.,0.000786755685550657,0.00157351137110131),
 .UNSPECIFIED.);
#17=B_SPLINE_CURVE_WITH_KNOTS('',3,(#1393,#1394,#1395,#1396,#1397),
 .UNSPECIFIED.,.F.,.F.,(4,1,4),(0.,0.00078678195234057,0.00157356390468114),
 .UNSPECIFIED.);
#18=CYLINDRICAL_SURFACE('',#899,0.001);
#19=CYLINDRICAL_SURFACE('',#901,0.001);
#20=CYLINDRICAL_SURFACE('',#903,0.001);
#21=CYLINDRICAL_SURFACE('',#904,0.001);
#22=CYLINDRICAL_SURFACE('',#905,0.001);
#23=CYLINDRICAL_SURFACE('',#906,0.001);
#24=CYLINDRICAL_SURFACE('',#907,0.001);
#25=CYLINDRICAL_SURFACE('',#908,0.001);
#26=CYLINDRICAL_SURFACE('',#909,0.001);
#27=CYLINDRICAL_SURFACE('',#910,0.001);
#28=CYLINDRICAL_SURFACE('',#911,0.001);
#29=CYLINDRICAL_SURFACE('',#912,0.001);
#30=CYLINDRICAL_SURFACE('',#913,0.001);
#31=CYLINDRICAL_SURFACE('',#914,0.001);
#32=CYLINDRICAL_SURFACE('',#915,0.003);
#33=CYLINDRICAL_SURFACE('',#916,0.003);
#34=CYLINDRICAL_SURFACE('',#917,0.003);
#35=CYLINDRICAL_SURFACE('',#918,0.003);
#36=CYLINDRICAL_SURFACE('',#919,0.0016);
#37=CYLINDRICAL_SURFACE('',#920,0.0016);
#38=CYLINDRICAL_SURFACE('',#921,0.0025);
#39=CYLINDRICAL_SURFACE('',#922,0.0025);
#40=CIRCLE('',#845,0.001);
#41=CIRCLE('',#846,0.001);
#42=CIRCLE('',#847,0.001);
#43=CIRCLE('',#849,0.001);
#44=CIRCLE('',#850,0.001);
#45=CIRCLE('',#851,0.001);
#46=CIRCLE('',#852,0.001);
#47=CIRCLE('',#853,0.001);
#48=CIRCLE('',#855,0.001);
#49=CIRCLE('',#856,0.001);
#50=CIRCLE('',#858,0.0016);
#51=CIRCLE('',#859,0.0016);
#52=CIRCLE('',#861,0.0025);
#53=CIRCLE('',#862,0.0025);
#54=CIRCLE('',#867,0.001);
#55=CIRCLE('',#868,0.001);
#56=CIRCLE('',#869,0.001);
#57=CIRCLE('',#870,0.001);
#58=CIRCLE('',#873,0.001);
#59=CIRCLE('',#874,0.001);
#60=CIRCLE('',#875,0.001);
#61=CIRCLE('',#876,0.001);
#62=CIRCLE('',#877,0.001);
#63=CIRCLE('',#878,0.001);
#64=CIRCLE('',#880,0.0016);
#65=CIRCLE('',#881,0.0016);
#66=CIRCLE('',#882,0.003);
#67=CIRCLE('',#883,0.003);
#68=CIRCLE('',#884,0.003);
#69=CIRCLE('',#885,0.003);
#70=CIRCLE('',#887,0.0025);
#71=CIRCLE('',#888,0.0025);
#72=CIRCLE('',#889,0.003);
#73=CIRCLE('',#890,0.003);
#74=CIRCLE('',#891,0.003);
#75=CIRCLE('',#892,0.003);
#76=ORIENTED_EDGE('',*,*,#312,.T.);
#77=ORIENTED_EDGE('',*,*,#313,.T.);
#78=ORIENTED_EDGE('',*,*,#314,.T.);
#79=ORIENTED_EDGE('',*,*,#315,.T.);
#80=ORIENTED_EDGE('',*,*,#316,.T.);
#81=ORIENTED_EDGE('',*,*,#317,.T.);
#82=ORIENTED_EDGE('',*,*,#318,.T.);
#83=ORIENTED_EDGE('',*,*,#319,.F.);
#84=ORIENTED_EDGE('',*,*,#320,.T.);
#85=ORIENTED_EDGE('',*,*,#321,.T.);
#86=ORIENTED_EDGE('',*,*,#322,.T.);
#87=ORIENTED_EDGE('',*,*,#323,.T.);
#88=ORIENTED_EDGE('',*,*,#324,.T.);
#89=ORIENTED_EDGE('',*,*,#325,.T.);
#90=ORIENTED_EDGE('',*,*,#326,.T.);
#91=ORIENTED_EDGE('',*,*,#327,.T.);
#92=ORIENTED_EDGE('',*,*,#328,.T.);
#93=ORIENTED_EDGE('',*,*,#329,.T.);
#94=ORIENTED_EDGE('',*,*,#330,.F.);
#95=ORIENTED_EDGE('',*,*,#331,.F.);
#96=ORIENTED_EDGE('',*,*,#332,.T.);
#97=ORIENTED_EDGE('',*,*,#333,.T.);
#98=ORIENTED_EDGE('',*,*,#334,.T.);
#99=ORIENTED_EDGE('',*,*,#335,.T.);
#100=ORIENTED_EDGE('',*,*,#336,.T.);
#101=ORIENTED_EDGE('',*,*,#337,.T.);
#102=ORIENTED_EDGE('',*,*,#338,.T.);
#103=ORIENTED_EDGE('',*,*,#339,.F.);
#104=ORIENTED_EDGE('',*,*,#340,.T.);
#105=ORIENTED_EDGE('',*,*,#341,.F.);
#106=ORIENTED_EDGE('',*,*,#330,.T.);
#107=ORIENTED_EDGE('',*,*,#342,.T.);
#108=ORIENTED_EDGE('',*,*,#343,.T.);
#109=ORIENTED_EDGE('',*,*,#344,.T.);
#110=ORIENTED_EDGE('',*,*,#326,.F.);
#111=ORIENTED_EDGE('',*,*,#345,.F.);
#112=ORIENTED_EDGE('',*,*,#346,.F.);
#113=ORIENTED_EDGE('',*,*,#347,.F.);
#114=ORIENTED_EDGE('',*,*,#325,.F.);
#115=ORIENTED_EDGE('',*,*,#348,.T.);
#116=ORIENTED_EDGE('',*,*,#349,.T.);
#117=ORIENTED_EDGE('',*,*,#350,.T.);
#118=ORIENTED_EDGE('',*,*,#351,.T.);
#119=ORIENTED_EDGE('',*,*,#314,.F.);
#120=ORIENTED_EDGE('',*,*,#352,.T.);
#121=ORIENTED_EDGE('',*,*,#353,.T.);
#122=ORIENTED_EDGE('',*,*,#354,.F.);
#123=ORIENTED_EDGE('',*,*,#355,.T.);
#124=ORIENTED_EDGE('',*,*,#331,.T.);
#125=ORIENTED_EDGE('',*,*,#345,.T.);
#126=ORIENTED_EDGE('',*,*,#356,.T.);
#127=ORIENTED_EDGE('',*,*,#357,.T.);
#128=ORIENTED_EDGE('',*,*,#343,.F.);
#129=ORIENTED_EDGE('',*,*,#358,.T.);
#130=ORIENTED_EDGE('',*,*,#359,.T.);
#131=ORIENTED_EDGE('',*,*,#360,.T.);
#132=ORIENTED_EDGE('',*,*,#361,.F.);
#133=ORIENTED_EDGE('',*,*,#362,.T.);
#134=ORIENTED_EDGE('',*,*,#323,.F.);
#135=ORIENTED_EDGE('',*,*,#363,.T.);
#136=ORIENTED_EDGE('',*,*,#319,.T.);
#137=ORIENTED_EDGE('',*,*,#364,.T.);
#138=ORIENTED_EDGE('',*,*,#365,.T.);
#139=ORIENTED_EDGE('',*,*,#366,.T.);
#140=ORIENTED_EDGE('',*,*,#367,.F.);
#141=ORIENTED_EDGE('',*,*,#368,.T.);
#142=ORIENTED_EDGE('',*,*,#321,.F.);
#143=ORIENTED_EDGE('',*,*,#369,.T.);
#144=ORIENTED_EDGE('',*,*,#370,.T.);
#145=ORIENTED_EDGE('',*,*,#371,.T.);
#146=ORIENTED_EDGE('',*,*,#372,.T.);
#147=ORIENTED_EDGE('',*,*,#367,.T.);
#148=ORIENTED_EDGE('',*,*,#373,.T.);
#149=ORIENTED_EDGE('',*,*,#365,.F.);
#150=ORIENTED_EDGE('',*,*,#374,.T.);
#151=ORIENTED_EDGE('',*,*,#349,.F.);
#152=ORIENTED_EDGE('',*,*,#375,.T.);
#153=ORIENTED_EDGE('',*,*,#376,.T.);
#154=ORIENTED_EDGE('',*,*,#377,.F.);
#155=ORIENTED_EDGE('',*,*,#378,.T.);
#156=ORIENTED_EDGE('',*,*,#379,.T.);
#157=ORIENTED_EDGE('',*,*,#380,.T.);
#158=ORIENTED_EDGE('',*,*,#381,.F.);
#159=ORIENTED_EDGE('',*,*,#382,.T.);
#160=ORIENTED_EDGE('',*,*,#383,.T.);
#161=ORIENTED_EDGE('',*,*,#384,.T.);
#162=ORIENTED_EDGE('',*,*,#385,.T.);
#163=ORIENTED_EDGE('',*,*,#354,.T.);
#164=ORIENTED_EDGE('',*,*,#386,.T.);
#165=ORIENTED_EDGE('',*,*,#387,.T.);
#166=ORIENTED_EDGE('',*,*,#388,.T.);
#167=ORIENTED_EDGE('',*,*,#389,.T.);
#168=ORIENTED_EDGE('',*,*,#390,.T.);
#169=ORIENTED_EDGE('',*,*,#391,.F.);
#170=ORIENTED_EDGE('',*,*,#392,.T.);
#171=ORIENTED_EDGE('',*,*,#393,.F.);
#172=ORIENTED_EDGE('',*,*,#394,.T.);
#173=ORIENTED_EDGE('',*,*,#395,.T.);
#174=ORIENTED_EDGE('',*,*,#396,.F.);
#175=ORIENTED_EDGE('',*,*,#397,.T.);
#176=ORIENTED_EDGE('',*,*,#398,.T.);
#177=ORIENTED_EDGE('',*,*,#399,.T.);
#178=ORIENTED_EDGE('',*,*,#381,.T.);
#179=ORIENTED_EDGE('',*,*,#400,.T.);
#180=ORIENTED_EDGE('',*,*,#383,.F.);
#181=ORIENTED_EDGE('',*,*,#401,.T.);
#182=ORIENTED_EDGE('',*,*,#312,.F.);
#183=ORIENTED_EDGE('',*,*,#402,.T.);
#184=ORIENTED_EDGE('',*,*,#377,.T.);
#185=ORIENTED_EDGE('',*,*,#403,.T.);
#186=ORIENTED_EDGE('',*,*,#404,.T.);
#187=ORIENTED_EDGE('',*,*,#405,.T.);
#188=ORIENTED_EDGE('',*,*,#396,.T.);
#189=ORIENTED_EDGE('',*,*,#406,.T.);
#190=ORIENTED_EDGE('',*,*,#379,.F.);
#191=ORIENTED_EDGE('',*,*,#407,.T.);
#192=ORIENTED_EDGE('',*,*,#370,.F.);
#193=ORIENTED_EDGE('',*,*,#408,.T.);
#194=ORIENTED_EDGE('',*,*,#409,.T.);
#195=ORIENTED_EDGE('',*,*,#410,.T.);
#196=ORIENTED_EDGE('',*,*,#333,.F.);
#197=ORIENTED_EDGE('',*,*,#411,.T.);
#198=ORIENTED_EDGE('',*,*,#412,.T.);
#199=ORIENTED_EDGE('',*,*,#413,.T.);
#200=ORIENTED_EDGE('',*,*,#335,.F.);
#201=ORIENTED_EDGE('',*,*,#414,.T.);
#202=ORIENTED_EDGE('',*,*,#393,.T.);
#203=ORIENTED_EDGE('',*,*,#415,.T.);
#204=ORIENTED_EDGE('',*,*,#391,.T.);
#205=ORIENTED_EDGE('',*,*,#416,.T.);
#206=ORIENTED_EDGE('',*,*,#337,.F.);
#207=ORIENTED_EDGE('',*,*,#417,.T.);
#208=ORIENTED_EDGE('',*,*,#389,.F.);
#209=ORIENTED_EDGE('',*,*,#418,.T.);
#210=ORIENTED_EDGE('',*,*,#339,.T.);
#211=ORIENTED_EDGE('',*,*,#419,.T.);
#212=ORIENTED_EDGE('',*,*,#341,.T.);
#213=ORIENTED_EDGE('',*,*,#420,.T.);
#214=ORIENTED_EDGE('',*,*,#387,.F.);
#215=ORIENTED_EDGE('',*,*,#421,.T.);
#216=ORIENTED_EDGE('',*,*,#359,.F.);
#217=ORIENTED_EDGE('',*,*,#422,.T.);
#218=ORIENTED_EDGE('',*,*,#409,.F.);
#219=ORIENTED_EDGE('',*,*,#423,.T.);
#220=ORIENTED_EDGE('',*,*,#318,.F.);
#221=ORIENTED_EDGE('',*,*,#424,.T.);
#222=ORIENTED_EDGE('',*,*,#351,.F.);
#223=ORIENTED_EDGE('',*,*,#425,.T.);
#224=ORIENTED_EDGE('',*,*,#352,.F.);
#225=ORIENTED_EDGE('',*,*,#426,.T.);
#226=ORIENTED_EDGE('',*,*,#327,.F.);
#227=ORIENTED_EDGE('',*,*,#427,.T.);
#228=ORIENTED_EDGE('',*,*,#329,.F.);
#229=ORIENTED_EDGE('',*,*,#428,.T.);
#230=ORIENTED_EDGE('',*,*,#358,.F.);
#231=ORIENTED_EDGE('',*,*,#342,.F.);
#232=ORIENTED_EDGE('',*,*,#360,.F.);
#233=ORIENTED_EDGE('',*,*,#429,.T.);
#234=ORIENTED_EDGE('',*,*,#316,.F.);
#235=ORIENTED_EDGE('',*,*,#344,.F.);
#236=ORIENTED_EDGE('',*,*,#340,.F.);
#237=ORIENTED_EDGE('',*,*,#418,.F.);
#238=ORIENTED_EDGE('',*,*,#388,.F.);
#239=ORIENTED_EDGE('',*,*,#420,.F.);
#240=ORIENTED_EDGE('',*,*,#427,.F.);
#241=ORIENTED_EDGE('',*,*,#421,.F.);
#242=ORIENTED_EDGE('',*,*,#386,.F.);
#243=ORIENTED_EDGE('',*,*,#353,.F.);
#244=ORIENTED_EDGE('',*,*,#332,.F.);
#245=ORIENTED_EDGE('',*,*,#355,.F.);
#246=ORIENTED_EDGE('',*,*,#385,.F.);
#247=ORIENTED_EDGE('',*,*,#411,.F.);
#248=ORIENTED_EDGE('',*,*,#334,.F.);
#249=ORIENTED_EDGE('',*,*,#413,.F.);
#250=ORIENTED_EDGE('',*,*,#394,.F.);
#251=ORIENTED_EDGE('',*,*,#414,.F.);
#252=ORIENTED_EDGE('',*,*,#338,.F.);
#253=ORIENTED_EDGE('',*,*,#416,.F.);
#254=ORIENTED_EDGE('',*,*,#390,.F.);
#255=ORIENTED_EDGE('',*,*,#419,.F.);
#256=ORIENTED_EDGE('',*,*,#336,.F.);
#257=ORIENTED_EDGE('',*,*,#415,.F.);
#258=ORIENTED_EDGE('',*,*,#392,.F.);
#259=ORIENTED_EDGE('',*,*,#417,.F.);
#260=ORIENTED_EDGE('',*,*,#324,.F.);
#261=ORIENTED_EDGE('',*,*,#362,.F.);
#262=ORIENTED_EDGE('',*,*,#375,.F.);
#263=ORIENTED_EDGE('',*,*,#348,.F.);
#264=ORIENTED_EDGE('',*,*,#322,.F.);
#265=ORIENTED_EDGE('',*,*,#368,.F.);
#266=ORIENTED_EDGE('',*,*,#372,.F.);
#267=ORIENTED_EDGE('',*,*,#363,.F.);
#268=ORIENTED_EDGE('',*,*,#425,.F.);
#269=ORIENTED_EDGE('',*,*,#350,.F.);
#270=ORIENTED_EDGE('',*,*,#374,.F.);
#271=ORIENTED_EDGE('',*,*,#364,.F.);
#272=ORIENTED_EDGE('',*,*,#320,.F.);
#273=ORIENTED_EDGE('',*,*,#366,.F.);
#274=ORIENTED_EDGE('',*,*,#373,.F.);
#275=ORIENTED_EDGE('',*,*,#369,.F.);
#276=ORIENTED_EDGE('',*,*,#400,.F.);
#277=ORIENTED_EDGE('',*,*,#380,.F.);
#278=ORIENTED_EDGE('',*,*,#406,.F.);
#279=ORIENTED_EDGE('',*,*,#395,.F.);
#280=ORIENTED_EDGE('',*,*,#412,.F.);
#281=ORIENTED_EDGE('',*,*,#384,.F.);
#282=ORIENTED_EDGE('',*,*,#401,.F.);
#283=ORIENTED_EDGE('',*,*,#397,.F.);
#284=ORIENTED_EDGE('',*,*,#410,.F.);
#285=ORIENTED_EDGE('',*,*,#422,.F.);
#286=ORIENTED_EDGE('',*,*,#428,.F.);
#287=ORIENTED_EDGE('',*,*,#328,.F.);
#288=ORIENTED_EDGE('',*,*,#426,.F.);
#289=ORIENTED_EDGE('',*,*,#313,.F.);
#290=ORIENTED_EDGE('',*,*,#361,.T.);
#291=ORIENTED_EDGE('',*,*,#371,.F.);
#292=ORIENTED_EDGE('',*,*,#407,.F.);
#293=ORIENTED_EDGE('',*,*,#382,.F.);
#294=ORIENTED_EDGE('',*,*,#403,.F.);
#295=ORIENTED_EDGE('',*,*,#376,.F.);
#296=ORIENTED_EDGE('',*,*,#429,.F.);
#297=ORIENTED_EDGE('',*,*,#423,.F.);
#298=ORIENTED_EDGE('',*,*,#408,.F.);
#299=ORIENTED_EDGE('',*,*,#378,.F.);
#300=ORIENTED_EDGE('',*,*,#402,.F.);
#301=ORIENTED_EDGE('',*,*,#315,.F.);
#302=ORIENTED_EDGE('',*,*,#424,.F.);
#303=ORIENTED_EDGE('',*,*,#317,.F.);
#304=ORIENTED_EDGE('',*,*,#399,.F.);
#305=ORIENTED_EDGE('',*,*,#347,.T.);
#306=ORIENTED_EDGE('',*,*,#398,.F.);
#307=ORIENTED_EDGE('',*,*,#346,.T.);
#308=ORIENTED_EDGE('',*,*,#357,.F.);
#309=ORIENTED_EDGE('',*,*,#405,.F.);
#310=ORIENTED_EDGE('',*,*,#356,.F.);
#311=ORIENTED_EDGE('',*,*,#404,.F.);
#312=EDGE_CURVE('',#430,#431,#508,.T.);
#313=EDGE_CURVE('',#431,#432,#509,.T.);
#314=EDGE_CURVE('',#432,#433,#510,.T.);
#315=EDGE_CURVE('',#433,#430,#511,.F.);
#316=EDGE_CURVE('',#434,#435,#512,.F.);
#317=EDGE_CURVE('',#435,#436,#513,.T.);
#318=EDGE_CURVE('',#436,#437,#514,.T.);
#319=EDGE_CURVE('',#438,#437,#515,.T.);
#320=EDGE_CURVE('',#438,#439,#40,.F.);
#321=EDGE_CURVE('',#439,#440,#516,.T.);
#322=EDGE_CURVE('',#440,#441,#41,.F.);
#323=EDGE_CURVE('',#441,#442,#517,.T.);
#324=EDGE_CURVE('',#442,#443,#42,.F.);
#325=EDGE_CURVE('',#443,#444,#518,.T.);
#326=EDGE_CURVE('',#444,#434,#519,.T.);
#327=EDGE_CURVE('',#445,#446,#520,.F.);
#328=EDGE_CURVE('',#446,#447,#521,.T.);
#329=EDGE_CURVE('',#447,#448,#522,.T.);
#330=EDGE_CURVE('',#449,#448,#523,.T.);
#331=EDGE_CURVE('',#450,#449,#524,.T.);
#332=EDGE_CURVE('',#450,#451,#43,.T.);
#333=EDGE_CURVE('',#451,#452,#525,.T.);
#334=EDGE_CURVE('',#452,#453,#44,.T.);
#335=EDGE_CURVE('',#453,#454,#526,.T.);
#336=EDGE_CURVE('',#454,#455,#45,.T.);
#337=EDGE_CURVE('',#455,#456,#527,.T.);
#338=EDGE_CURVE('',#456,#457,#46,.T.);
#339=EDGE_CURVE('',#458,#457,#528,.T.);
#340=EDGE_CURVE('',#458,#459,#47,.F.);
#341=EDGE_CURVE('',#445,#459,#529,.T.);
#342=EDGE_CURVE('',#448,#460,#48,.F.);
#343=EDGE_CURVE('',#460,#461,#530,.T.);
#344=EDGE_CURVE('',#461,#434,#49,.F.);
#345=EDGE_CURVE('',#449,#444,#531,.T.);
#346=EDGE_CURVE('',#462,#462,#50,.F.);
#347=EDGE_CURVE('',#463,#463,#51,.F.);
#348=EDGE_CURVE('',#443,#464,#532,.T.);
#349=EDGE_CURVE('',#464,#465,#533,.T.);
#350=EDGE_CURVE('',#465,#466,#534,.F.);
#351=EDGE_CURVE('',#466,#433,#535,.F.);
#352=EDGE_CURVE('',#432,#467,#536,.T.);
#353=EDGE_CURVE('',#467,#468,#537,.T.);
#354=EDGE_CURVE('',#469,#468,#538,.T.);
#355=EDGE_CURVE('',#469,#450,#539,.F.);
#356=EDGE_CURVE('',#470,#470,#52,.F.);
#357=EDGE_CURVE('',#471,#471,#53,.F.);
#358=EDGE_CURVE('',#460,#472,#540,.F.);
#359=EDGE_CURVE('',#472,#473,#541,.T.);
#360=EDGE_CURVE('',#473,#461,#542,.T.);
#361=EDGE_CURVE('',#474,#475,#543,.T.);
#362=EDGE_CURVE('',#474,#442,#544,.F.);
#363=EDGE_CURVE('',#441,#475,#545,.T.);
#364=EDGE_CURVE('',#437,#476,#546,.T.);
#365=EDGE_CURVE('',#476,#477,#547,.T.);
#366=EDGE_CURVE('',#477,#438,#548,.F.);
#367=EDGE_CURVE('',#478,#479,#549,.T.);
#368=EDGE_CURVE('',#478,#440,#550,.F.);
#369=EDGE_CURVE('',#439,#479,#551,.T.);
#370=EDGE_CURVE('',#480,#481,#552,.T.);
#371=EDGE_CURVE('',#481,#475,#553,.F.);
#372=EDGE_CURVE('',#475,#478,#54,.T.);
#373=EDGE_CURVE('',#479,#477,#55,.T.);
#374=EDGE_CURVE('',#476,#465,#56,.T.);
#375=EDGE_CURVE('',#464,#474,#57,.T.);
#376=EDGE_CURVE('',#474,#482,#554,.F.);
#377=EDGE_CURVE('',#483,#482,#555,.T.);
#378=EDGE_CURVE('',#483,#480,#556,.T.);
#379=EDGE_CURVE('',#484,#485,#557,.T.);
#380=EDGE_CURVE('',#485,#486,#558,.F.);
#381=EDGE_CURVE('',#487,#486,#559,.T.);
#382=EDGE_CURVE('',#487,#484,#560,.T.);
#383=EDGE_CURVE('',#488,#489,#561,.T.);
#384=EDGE_CURVE('',#489,#490,#562,.T.);
#385=EDGE_CURVE('',#490,#469,#58,.F.);
#386=EDGE_CURVE('',#468,#491,#59,.F.);
#387=EDGE_CURVE('',#491,#492,#563,.T.);
#388=EDGE_CURVE('',#492,#493,#60,.T.);
#389=EDGE_CURVE('',#493,#494,#564,.T.);
#390=EDGE_CURVE('',#494,#495,#61,.F.);
#391=EDGE_CURVE('',#496,#495,#565,.T.);
#392=EDGE_CURVE('',#496,#497,#62,.F.);
#393=EDGE_CURVE('',#498,#497,#566,.T.);
#394=EDGE_CURVE('',#498,#499,#63,.F.);
#395=EDGE_CURVE('',#499,#500,#567,.T.);
#396=EDGE_CURVE('',#501,#500,#568,.T.);
#397=EDGE_CURVE('',#501,#488,#569,.F.);
#398=EDGE_CURVE('',#502,#502,#64,.F.);
#399=EDGE_CURVE('',#503,#503,#65,.F.);
#400=EDGE_CURVE('',#486,#489,#66,.T.);
#401=EDGE_CURVE('',#488,#431,#67,.T.);
#402=EDGE_CURVE('',#430,#483,#68,.T.);
#403=EDGE_CURVE('',#482,#487,#69,.T.);
#404=EDGE_CURVE('',#504,#504,#70,.T.);
#405=EDGE_CURVE('',#505,#505,#71,.T.);
#406=EDGE_CURVE('',#500,#485,#72,.F.);
#407=EDGE_CURVE('',#484,#481,#73,.F.);
#408=EDGE_CURVE('',#480,#506,#74,.F.);
#409=EDGE_CURVE('',#506,#507,#570,.T.);
#410=EDGE_CURVE('',#507,#501,#75,.F.);
#411=EDGE_CURVE('',#451,#490,#571,.T.);
#412=EDGE_CURVE('',#490,#499,#572,.T.);
#413=EDGE_CURVE('',#499,#452,#573,.F.);
#414=EDGE_CURVE('',#453,#498,#574,.T.);
#415=EDGE_CURVE('',#497,#454,#575,.F.);
#416=EDGE_CURVE('',#495,#456,#576,.F.);
#417=EDGE_CURVE('',#455,#496,#577,.T.);
#418=EDGE_CURVE('',#493,#458,#578,.F.);
#419=EDGE_CURVE('',#457,#494,#579,.T.);
#420=EDGE_CURVE('',#459,#492,#580,.T.);
#421=EDGE_CURVE('',#491,#445,#581,.F.);
#422=EDGE_CURVE('',#472,#507,#582,.T.);
#423=EDGE_CURVE('',#506,#473,#583,.F.);
#424=EDGE_CURVE('',#436,#433,#14,.T.);
#425=EDGE_CURVE('',#466,#437,#12,.T.);
#426=EDGE_CURVE('',#432,#446,#15,.T.);
#427=EDGE_CURVE('',#445,#467,#13,.F.);
#428=EDGE_CURVE('',#447,#472,#16,.T.);
#429=EDGE_CURVE('',#473,#435,#17,.T.);
#430=VERTEX_POINT('',#1164);
#431=VERTEX_POINT('',#1165);
#432=VERTEX_POINT('',#1167);
#433=VERTEX_POINT('',#1169);
#434=VERTEX_POINT('',#1173);
#435=VERTEX_POINT('',#1174);
#436=VERTEX_POINT('',#1176);
#437=VERTEX_POINT('',#1178);
#438=VERTEX_POINT('',#1180);
#439=VERTEX_POINT('',#1182);
#440=VERTEX_POINT('',#1184);
#441=VERTEX_POINT('',#1186);
#442=VERTEX_POINT('',#1188);
#443=VERTEX_POINT('',#1190);
#444=VERTEX_POINT('',#1192);
#445=VERTEX_POINT('',#1196);
#446=VERTEX_POINT('',#1197);
#447=VERTEX_POINT('',#1199);
#448=VERTEX_POINT('',#1201);
#449=VERTEX_POINT('',#1203);
#450=VERTEX_POINT('',#1205);
#451=VERTEX_POINT('',#1207);
#452=VERTEX_POINT('',#1209);
#453=VERTEX_POINT('',#1211);
#454=VERTEX_POINT('',#1213);
#455=VERTEX_POINT('',#1215);
#456=VERTEX_POINT('',#1217);
#457=VERTEX_POINT('',#1219);
#458=VERTEX_POINT('',#1221);
#459=VERTEX_POINT('',#1223);
#460=VERTEX_POINT('',#1227);
#461=VERTEX_POINT('',#1229);
#462=VERTEX_POINT('',#1234);
#463=VERTEX_POINT('',#1236);
#464=VERTEX_POINT('',#1238);
#465=VERTEX_POINT('',#1240);
#466=VERTEX_POINT('',#1242);
#467=VERTEX_POINT('',#1245);
#468=VERTEX_POINT('',#1247);
#469=VERTEX_POINT('',#1249);
#470=VERTEX_POINT('',#1253);
#471=VERTEX_POINT('',#1255);
#472=VERTEX_POINT('',#1257);
#473=VERTEX_POINT('',#1259);
#474=VERTEX_POINT('',#1263);
#475=VERTEX_POINT('',#1264);
#476=VERTEX_POINT('',#1269);
#477=VERTEX_POINT('',#1271);
#478=VERTEX_POINT('',#1275);
#479=VERTEX_POINT('',#1276);
#480=VERTEX_POINT('',#1281);
#481=VERTEX_POINT('',#1282);
#482=VERTEX_POINT('',#1289);
#483=VERTEX_POINT('',#1291);
#484=VERTEX_POINT('',#1295);
#485=VERTEX_POINT('',#1296);
#486=VERTEX_POINT('',#1298);
#487=VERTEX_POINT('',#1300);
#488=VERTEX_POINT('',#1304);
#489=VERTEX_POINT('',#1305);
#490=VERTEX_POINT('',#1307);
#491=VERTEX_POINT('',#1310);
#492=VERTEX_POINT('',#1312);
#493=VERTEX_POINT('',#1314);
#494=VERTEX_POINT('',#1316);
#495=VERTEX_POINT('',#1318);
#496=VERTEX_POINT('',#1320);
#497=VERTEX_POINT('',#1322);
#498=VERTEX_POINT('',#1324);
#499=VERTEX_POINT('',#1326);
#500=VERTEX_POINT('',#1328);
#501=VERTEX_POINT('',#1330);
#502=VERTEX_POINT('',#1334);
#503=VERTEX_POINT('',#1336);
#504=VERTEX_POINT('',#1343);
#505=VERTEX_POINT('',#1345);
#506=VERTEX_POINT('',#1349);
#507=VERTEX_POINT('',#1351);
#508=LINE('',#1163,#584);
#509=LINE('',#1166,#585);
#510=LINE('',#1168,#586);
#511=LINE('',#1170,#587);
#512=LINE('',#1172,#588);
#513=LINE('',#1175,#589);
#514=LINE('',#1177,#590);
#515=LINE('',#1179,#591);
#516=LINE('',#1183,#592);
#517=LINE('',#1187,#593);
#518=LINE('',#1191,#594);
#519=LINE('',#1193,#595);
#520=LINE('',#1195,#596);
#521=LINE('',#1198,#597);
#522=LINE('',#1200,#598);
#523=LINE('',#1202,#599);
#524=LINE('',#1204,#600);
#525=LINE('',#1208,#601);
#526=LINE('',#1212,#602);
#527=LINE('',#1216,#603);
#528=LINE('',#1220,#604);
#529=LINE('',#1224,#605);
#530=LINE('',#1228,#606);
#531=LINE('',#1231,#607);
#532=LINE('',#1237,#608);
#533=LINE('',#1239,#609);
#534=LINE('',#1241,#610);
#535=LINE('',#1243,#611);
#536=LINE('',#1244,#612);
#537=LINE('',#1246,#613);
#538=LINE('',#1248,#614);
#539=LINE('',#1250,#615);
#540=LINE('',#1256,#616);
#541=LINE('',#1258,#617);
#542=LINE('',#1260,#618);
#543=LINE('',#1262,#619);
#544=LINE('',#1265,#620);
#545=LINE('',#1266,#621);
#546=LINE('',#1268,#622);
#547=LINE('',#1270,#623);
#548=LINE('',#1272,#624);
#549=LINE('',#1274,#625);
#550=LINE('',#1277,#626);
#551=LINE('',#1278,#627);
#552=LINE('',#1280,#628);
#553=LINE('',#1283,#629);
#554=LINE('',#1288,#630);
#555=LINE('',#1290,#631);
#556=LINE('',#1292,#632);
#557=LINE('',#1294,#633);
#558=LINE('',#1297,#634);
#559=LINE('',#1299,#635);
#560=LINE('',#1301,#636);
#561=LINE('',#1303,#637);
#562=LINE('',#1306,#638);
#563=LINE('',#1311,#639);
#564=LINE('',#1315,#640);
#565=LINE('',#1319,#641);
#566=LINE('',#1323,#642);
#567=LINE('',#1327,#643);
#568=LINE('',#1329,#644);
#569=LINE('',#1331,#645);
#570=LINE('',#1350,#646);
#571=LINE('',#1354,#647);
#572=LINE('',#1355,#648);
#573=LINE('',#1356,#649);
#574=LINE('',#1358,#650);
#575=LINE('',#1359,#651);
#576=LINE('',#1361,#652);
#577=LINE('',#1362,#653);
#578=LINE('',#1364,#654);
#579=LINE('',#1365,#655);
#580=LINE('',#1367,#656);
#581=LINE('',#1368,#657);
#582=LINE('',#1370,#658);
#583=LINE('',#1371,#659);
#584=VECTOR('',#927,1.);
#585=VECTOR('',#928,1.);
#586=VECTOR('',#929,1.);
#587=VECTOR('',#930,1.);
#588=VECTOR('',#933,1.);
#589=VECTOR('',#934,1.);
#590=VECTOR('',#935,1.);
#591=VECTOR('',#936,1.);
#592=VECTOR('',#939,1.);
#593=VECTOR('',#942,1.);
#594=VECTOR('',#945,1.);
#595=VECTOR('',#946,1.);
#596=VECTOR('',#949,1.);
#597=VECTOR('',#950,1.);
#598=VECTOR('',#951,1.);
#599=VECTOR('',#952,1.);
#600=VECTOR('',#953,1.);
#601=VECTOR('',#956,1.);
#602=VECTOR('',#959,1.);
#603=VECTOR('',#962,1.);
#604=VECTOR('',#965,1.);
#605=VECTOR('',#968,1.);
#606=VECTOR('',#973,1.);
#607=VECTOR('',#976,1.);
#608=VECTOR('',#983,1.);
#609=VECTOR('',#984,1.);
#610=VECTOR('',#985,1.);
#611=VECTOR('',#986,1.);
#612=VECTOR('',#987,1.);
#613=VECTOR('',#988,1.);
#614=VECTOR('',#989,1.);
#615=VECTOR('',#990,1.);
#616=VECTOR('',#997,1.);
#617=VECTOR('',#998,1.);
#618=VECTOR('',#999,1.);
#619=VECTOR('',#1002,1.);
#620=VECTOR('',#1003,1.);
#621=VECTOR('',#1004,1.);
#622=VECTOR('',#1007,1.);
#623=VECTOR('',#1008,1.);
#624=VECTOR('',#1009,1.);
#625=VECTOR('',#1012,1.);
#626=VECTOR('',#1013,1.);
#627=VECTOR('',#1014,1.);
#628=VECTOR('',#1017,1.);
#629=VECTOR('',#1018,1.);
#630=VECTOR('',#1027,1.);
#631=VECTOR('',#1028,1.);
#632=VECTOR('',#1029,1.);
#633=VECTOR('',#1032,1.);
#634=VECTOR('',#1033,1.);
#635=VECTOR('',#1034,1.);
#636=VECTOR('',#1035,1.);
#637=VECTOR('',#1038,1.);
#638=VECTOR('',#1039,1.);
#639=VECTOR('',#1044,1.);
#640=VECTOR('',#1047,1.);
#641=VECTOR('',#1050,1.);
#642=VECTOR('',#1053,1.);
#643=VECTOR('',#1056,1.);
#644=VECTOR('',#1057,1.);
#645=VECTOR('',#1058,1.);
#646=VECTOR('',#1085,1.);
#647=VECTOR('',#1090,1.);
#648=VECTOR('',#1091,1.);
#649=VECTOR('',#1092,1.);
#650=VECTOR('',#1095,1.);
#651=VECTOR('',#1096,1.);
#652=VECTOR('',#1099,1.);
#653=VECTOR('',#1100,1.);
#654=VECTOR('',#1103,1.);
#655=VECTOR('',#1104,1.);
#656=VECTOR('',#1107,1.);
#657=VECTOR('',#1108,1.);
#658=VECTOR('',#1111,1.);
#659=VECTOR('',#1112,1.);
#660=EDGE_LOOP('',(#76,#77,#78,#79));
#661=EDGE_LOOP('',(#80,#81,#82,#83,#84,#85,#86,#87,#88,#89,#90));
#662=EDGE_LOOP('',(#91,#92,#93,#94,#95,#96,#97,#98,#99,#100,#101,#102,#103,
#104,#105));
#663=EDGE_LOOP('',(#106,#107,#108,#109,#110,#111));
#664=EDGE_LOOP('',(#112));
#665=EDGE_LOOP('',(#113));
#666=EDGE_LOOP('',(#114,#115,#116,#117,#118,#119,#120,#121,#122,#123,#124,
#125));
#667=EDGE_LOOP('',(#126));
#668=EDGE_LOOP('',(#127));
#669=EDGE_LOOP('',(#128,#129,#130,#131));
#670=EDGE_LOOP('',(#132,#133,#134,#135));
#671=EDGE_LOOP('',(#136,#137,#138,#139));
#672=EDGE_LOOP('',(#140,#141,#142,#143));
#673=EDGE_LOOP('',(#144,#145,#146,#147,#148,#149,#150,#151,#152,#153,#154,
#155));
#674=EDGE_LOOP('',(#156,#157,#158,#159));
#675=EDGE_LOOP('',(#160,#161,#162,#163,#164,#165,#166,#167,#168,#169,#170,
#171,#172,#173,#174,#175));
#676=EDGE_LOOP('',(#176));
#677=EDGE_LOOP('',(#177));
#678=EDGE_LOOP('',(#178,#179,#180,#181,#182,#183,#184,#185));
#679=EDGE_LOOP('',(#186));
#680=EDGE_LOOP('',(#187));
#681=EDGE_LOOP('',(#188,#189,#190,#191,#192,#193,#194,#195));
#682=EDGE_LOOP('',(#196,#197,#198,#199));
#683=EDGE_LOOP('',(#200,#201,#202,#203));
#684=EDGE_LOOP('',(#204,#205,#206,#207));
#685=EDGE_LOOP('',(#208,#209,#210,#211));
#686=EDGE_LOOP('',(#212,#213,#214,#215));
#687=EDGE_LOOP('',(#216,#217,#218,#219));
#688=EDGE_LOOP('',(#220,#221,#222,#223));
#689=EDGE_LOOP('',(#224,#225,#226,#227));
#690=EDGE_LOOP('',(#228,#229,#230,#231));
#691=EDGE_LOOP('',(#232,#233,#234,#235));
#692=EDGE_LOOP('',(#236,#237,#238,#239));
#693=EDGE_LOOP('',(#240,#241,#242,#243));
#694=EDGE_LOOP('',(#244,#245,#246,#247));
#695=EDGE_LOOP('',(#248,#249,#250,#251));
#696=EDGE_LOOP('',(#252,#253,#254,#255));
#697=EDGE_LOOP('',(#256,#257,#258,#259));
#698=EDGE_LOOP('',(#260,#261,#262,#263));
#699=EDGE_LOOP('',(#264,#265,#266,#267));
#700=EDGE_LOOP('',(#268,#269,#270,#271));
#701=EDGE_LOOP('',(#272,#273,#274,#275));
#702=EDGE_LOOP('',(#276,#277,#278,#279,#280,#281));
#703=EDGE_LOOP('',(#282,#283,#284,#285,#286,#287,#288,#289));
#704=EDGE_LOOP('',(#290,#291,#292,#293,#294,#295));
#705=EDGE_LOOP('',(#296,#297,#298,#299,#300,#301,#302,#303));
#706=EDGE_LOOP('',(#304));
#707=EDGE_LOOP('',(#305));
#708=EDGE_LOOP('',(#306));
#709=EDGE_LOOP('',(#307));
#710=EDGE_LOOP('',(#308));
#711=EDGE_LOOP('',(#309));
#712=EDGE_LOOP('',(#310));
#713=EDGE_LOOP('',(#311));
#714=FACE_BOUND('',#660,.T.);
#715=FACE_BOUND('',#661,.T.);
#716=FACE_BOUND('',#662,.T.);
#717=FACE_BOUND('',#663,.T.);
#718=FACE_BOUND('',#664,.T.);
#719=FACE_BOUND('',#665,.T.);
#720=FACE_BOUND('',#666,.T.);
#721=FACE_BOUND('',#667,.T.);
#722=FACE_BOUND('',#668,.T.);
#723=FACE_BOUND('',#669,.T.);
#724=FACE_BOUND('',#670,.T.);
#725=FACE_BOUND('',#671,.T.);
#726=FACE_BOUND('',#672,.T.);
#727=FACE_BOUND('',#673,.T.);
#728=FACE_BOUND('',#674,.T.);
#729=FACE_BOUND('',#675,.T.);
#730=FACE_BOUND('',#676,.T.);
#731=FACE_BOUND('',#677,.T.);
#732=FACE_BOUND('',#678,.T.);
#733=FACE_BOUND('',#679,.T.);
#734=FACE_BOUND('',#680,.T.);
#735=FACE_BOUND('',#681,.T.);
#736=FACE_BOUND('',#682,.T.);
#737=FACE_BOUND('',#683,.T.);
#738=FACE_BOUND('',#684,.T.);
#739=FACE_BOUND('',#685,.T.);
#740=FACE_BOUND('',#686,.T.);
#741=FACE_BOUND('',#687,.T.);
#742=FACE_BOUND('',#688,.T.);
#743=FACE_BOUND('',#689,.T.);
#744=FACE_BOUND('',#690,.T.);
#745=FACE_BOUND('',#691,.T.);
#746=FACE_BOUND('',#692,.T.);
#747=FACE_BOUND('',#693,.T.);
#748=FACE_BOUND('',#694,.T.);
#749=FACE_BOUND('',#695,.T.);
#750=FACE_BOUND('',#696,.T.);
#751=FACE_BOUND('',#697,.T.);
#752=FACE_BOUND('',#698,.T.);
#753=FACE_BOUND('',#699,.T.);
#754=FACE_BOUND('',#700,.T.);
#755=FACE_BOUND('',#701,.T.);
#756=FACE_BOUND('',#702,.T.);
#757=FACE_BOUND('',#703,.T.);
#758=FACE_BOUND('',#704,.T.);
#759=FACE_BOUND('',#705,.T.);
#760=FACE_BOUND('',#706,.T.);
#761=FACE_BOUND('',#707,.T.);
#762=FACE_BOUND('',#708,.T.);
#763=FACE_BOUND('',#709,.T.);
#764=FACE_BOUND('',#710,.T.);
#765=FACE_BOUND('',#711,.T.);
#766=FACE_BOUND('',#712,.T.);
#767=FACE_BOUND('',#713,.T.);
#768=PLANE('',#843);
#769=PLANE('',#844);
#770=PLANE('',#848);
#771=PLANE('',#854);
#772=PLANE('',#857);
#773=PLANE('',#860);
#774=PLANE('',#863);
#775=PLANE('',#864);
#776=PLANE('',#865);
#777=PLANE('',#866);
#778=PLANE('',#871);
#779=PLANE('',#872);
#780=PLANE('',#879);
#781=PLANE('',#886);
#782=PLANE('',#893);
#783=PLANE('',#894);
#784=PLANE('',#895);
#785=PLANE('',#896);
#786=PLANE('',#897);
#787=PLANE('',#898);
#788=ADVANCED_FACE('',(#714),#768,.T.);
#789=ADVANCED_FACE('',(#715),#769,.T.);
#790=ADVANCED_FACE('',(#716),#770,.F.);
#791=ADVANCED_FACE('',(#717),#771,.F.);
#792=ADVANCED_FACE('',(#718,#719,#720),#772,.F.);
#793=ADVANCED_FACE('',(#721,#722,#723),#773,.T.);
#794=ADVANCED_FACE('',(#724),#774,.T.);
#795=ADVANCED_FACE('',(#725),#775,.F.);
#796=ADVANCED_FACE('',(#726),#776,.T.);
#797=ADVANCED_FACE('',(#727),#777,.F.);
#798=ADVANCED_FACE('',(#728),#778,.F.);
#799=ADVANCED_FACE('',(#729),#779,.T.);
#800=ADVANCED_FACE('',(#730,#731,#732),#780,.T.);
#801=ADVANCED_FACE('',(#733,#734,#735),#781,.F.);
#802=ADVANCED_FACE('',(#736),#782,.F.);
#803=ADVANCED_FACE('',(#737),#783,.F.);
#804=ADVANCED_FACE('',(#738),#784,.F.);
#805=ADVANCED_FACE('',(#739),#785,.T.);
#806=ADVANCED_FACE('',(#740),#786,.T.);
#807=ADVANCED_FACE('',(#741),#787,.T.);
#808=ADVANCED_FACE('',(#742),#18,.F.);
#809=ADVANCED_FACE('',(#743),#19,.F.);
#810=ADVANCED_FACE('',(#744),#20,.F.);
#811=ADVANCED_FACE('',(#745),#21,.F.);
#812=ADVANCED_FACE('',(#746),#22,.T.);
#813=ADVANCED_FACE('',(#747),#23,.F.);
#814=ADVANCED_FACE('',(#748),#24,.F.);
#815=ADVANCED_FACE('',(#749),#25,.F.);
#816=ADVANCED_FACE('',(#750),#26,.F.);
#817=ADVANCED_FACE('',(#751),#27,.F.);
#818=ADVANCED_FACE('',(#752),#28,.F.);
#819=ADVANCED_FACE('',(#753),#29,.F.);
#820=ADVANCED_FACE('',(#754),#30,.F.);
#821=ADVANCED_FACE('',(#755),#31,.F.);
#822=ADVANCED_FACE('',(#756),#32,.T.);
#823=ADVANCED_FACE('',(#757),#33,.T.);
#824=ADVANCED_FACE('',(#758),#34,.T.);
#825=ADVANCED_FACE('',(#759),#35,.T.);
#826=ADVANCED_FACE('',(#760,#761),#36,.F.);
#827=ADVANCED_FACE('',(#762,#763),#37,.F.);
#828=ADVANCED_FACE('',(#764,#765),#38,.F.);
#829=ADVANCED_FACE('',(#766,#767),#39,.F.);
#830=CLOSED_SHELL('',(#788,#789,#790,#791,#792,#793,#794,#795,#796,#797,
#798,#799,#800,#801,#802,#803,#804,#805,#806,#807,#808,#809,#810,#811,#812,
#813,#814,#815,#816,#817,#818,#819,#820,#821,#822,#823,#824,#825,#826,#827,
#828,#829));
#831=STYLED_ITEM('',(#832),#839);
#832=PRESENTATION_STYLE_ASSIGNMENT((#833));
#833=SURFACE_STYLE_USAGE(.BOTH.,#834);
#834=SURFACE_SIDE_STYLE('',(#835));
#835=SURFACE_STYLE_FILL_AREA(#836);
#836=FILL_AREA_STYLE('',(#837));
#837=FILL_AREA_STYLE_COLOUR('',#838);
#838=COLOUR_RGB('',0.615686274509804,0.811764705882353,0.929411764705882);
#839=MANIFOLD_SOLID_BREP('Part 231',#830);
#840=SHAPE_DEFINITION_REPRESENTATION(#1422,#841);
#841=SHAPE_REPRESENTATION('Part 231',(#842),#1417);
#842=AXIS2_PLACEMENT_3D('',#1161,#923,#924);
#843=AXIS2_PLACEMENT_3D('',#1162,#925,#926);
#844=AXIS2_PLACEMENT_3D('',#1171,#931,#932);
#845=AXIS2_PLACEMENT_3D('',#1181,#937,#938);
#846=AXIS2_PLACEMENT_3D('',#1185,#940,#941);
#847=AXIS2_PLACEMENT_3D('',#1189,#943,#944);
#848=AXIS2_PLACEMENT_3D('',#1194,#947,#948);
#849=AXIS2_PLACEMENT_3D('',#1206,#954,#955);
#850=AXIS2_PLACEMENT_3D('',#1210,#957,#958);
#851=AXIS2_PLACEMENT_3D('',#1214,#960,#961);
#852=AXIS2_PLACEMENT_3D('',#1218,#963,#964);
#853=AXIS2_PLACEMENT_3D('',#1222,#966,#967);
#854=AXIS2_PLACEMENT_3D('',#1225,#969,#970);
#855=AXIS2_PLACEMENT_3D('',#1226,#971,#972);
#856=AXIS2_PLACEMENT_3D('',#1230,#974,#975);
#857=AXIS2_PLACEMENT_3D('',#1232,#977,#978);
#858=AXIS2_PLACEMENT_3D('',#1233,#979,#980);
#859=AXIS2_PLACEMENT_3D('',#1235,#981,#982);
#860=AXIS2_PLACEMENT_3D('',#1251,#991,#992);
#861=AXIS2_PLACEMENT_3D('',#1252,#993,#994);
#862=AXIS2_PLACEMENT_3D('',#1254,#995,#996);
#863=AXIS2_PLACEMENT_3D('',#1261,#1000,#1001);
#864=AXIS2_PLACEMENT_3D('',#1267,#1005,#1006);
#865=AXIS2_PLACEMENT_3D('',#1273,#1010,#1011);
#866=AXIS2_PLACEMENT_3D('',#1279,#1015,#1016);
#867=AXIS2_PLACEMENT_3D('',#1284,#1019,#1020);
#868=AXIS2_PLACEMENT_3D('',#1285,#1021,#1022);
#869=AXIS2_PLACEMENT_3D('',#1286,#1023,#1024);
#870=AXIS2_PLACEMENT_3D('',#1287,#1025,#1026);
#871=AXIS2_PLACEMENT_3D('',#1293,#1030,#1031);
#872=AXIS2_PLACEMENT_3D('',#1302,#1036,#1037);
#873=AXIS2_PLACEMENT_3D('',#1308,#1040,#1041);
#874=AXIS2_PLACEMENT_3D('',#1309,#1042,#1043);
#875=AXIS2_PLACEMENT_3D('',#1313,#1045,#1046);
#876=AXIS2_PLACEMENT_3D('',#1317,#1048,#1049);
#877=AXIS2_PLACEMENT_3D('',#1321,#1051,#1052);
#878=AXIS2_PLACEMENT_3D('',#1325,#1054,#1055);
#879=AXIS2_PLACEMENT_3D('',#1332,#1059,#1060);
#880=AXIS2_PLACEMENT_3D('',#1333,#1061,#1062);
#881=AXIS2_PLACEMENT_3D('',#1335,#1063,#1064);
#882=AXIS2_PLACEMENT_3D('',#1337,#1065,#1066);
#883=AXIS2_PLACEMENT_3D('',#1338,#1067,#1068);
#884=AXIS2_PLACEMENT_3D('',#1339,#1069,#1070);
#885=AXIS2_PLACEMENT_3D('',#1340,#1071,#1072);
#886=AXIS2_PLACEMENT_3D('',#1341,#1073,#1074);
#887=AXIS2_PLACEMENT_3D('',#1342,#1075,#1076);
#888=AXIS2_PLACEMENT_3D('',#1344,#1077,#1078);
#889=AXIS2_PLACEMENT_3D('',#1346,#1079,#1080);
#890=AXIS2_PLACEMENT_3D('',#1347,#1081,#1082);
#891=AXIS2_PLACEMENT_3D('',#1348,#1083,#1084);
#892=AXIS2_PLACEMENT_3D('',#1352,#1086,#1087);
#893=AXIS2_PLACEMENT_3D('',#1353,#1088,#1089);
#894=AXIS2_PLACEMENT_3D('',#1357,#1093,#1094);
#895=AXIS2_PLACEMENT_3D('',#1360,#1097,#1098);
#896=AXIS2_PLACEMENT_3D('',#1363,#1101,#1102);
#897=AXIS2_PLACEMENT_3D('',#1366,#1105,#1106);
#898=AXIS2_PLACEMENT_3D('',#1369,#1109,#1110);
#899=AXIS2_PLACEMENT_3D('',#1372,#1113,#1114);
#900=AXIS2_PLACEMENT_3D('',#1378,#1115,#1116);
#901=AXIS2_PLACEMENT_3D('',#1379,#1117,#1118);
#902=AXIS2_PLACEMENT_3D('',#1385,#1119,#1120);
#903=AXIS2_PLACEMENT_3D('',#1386,#1121,#1122);
#904=AXIS2_PLACEMENT_3D('',#1392,#1123,#1124);
#905=AXIS2_PLACEMENT_3D('',#1398,#1125,#1126);
#906=AXIS2_PLACEMENT_3D('',#1399,#1127,#1128);
#907=AXIS2_PLACEMENT_3D('',#1400,#1129,#1130);
#908=AXIS2_PLACEMENT_3D('',#1401,#1131,#1132);
#909=AXIS2_PLACEMENT_3D('',#1402,#1133,#1134);
#910=AXIS2_PLACEMENT_3D('',#1403,#1135,#1136);
#911=AXIS2_PLACEMENT_3D('',#1404,#1137,#1138);
#912=AXIS2_PLACEMENT_3D('',#1405,#1139,#1140);
#913=AXIS2_PLACEMENT_3D('',#1406,#1141,#1142);
#914=AXIS2_PLACEMENT_3D('',#1407,#1143,#1144);
#915=AXIS2_PLACEMENT_3D('',#1408,#1145,#1146);
#916=AXIS2_PLACEMENT_3D('',#1409,#1147,#1148);
#917=AXIS2_PLACEMENT_3D('',#1410,#1149,#1150);
#918=AXIS2_PLACEMENT_3D('',#1411,#1151,#1152);
#919=AXIS2_PLACEMENT_3D('',#1412,#1153,#1154);
#920=AXIS2_PLACEMENT_3D('',#1413,#1155,#1156);
#921=AXIS2_PLACEMENT_3D('',#1414,#1157,#1158);
#922=AXIS2_PLACEMENT_3D('',#1415,#1159,#1160);
#923=DIRECTION('',(0.,0.,1.));
#924=DIRECTION('',(1.,0.,0.));
#925=DIRECTION('',(0.,1.,0.));
#926=DIRECTION('',(0.,0.,1.));
#927=DIRECTION('',(1.,0.,0.));
#928=DIRECTION('',(0.,0.,-1.));
#929=DIRECTION('',(-1.,0.,0.));
#930=DIRECTION('',(0.,0.,-1.));
#931=DIRECTION('',(1.,-6.19544098563145E-17,0.));
#932=DIRECTION('',(6.19544098563145E-17,1.,0.));
#933=DIRECTION('',(-6.19544098563145E-17,-1.,0.));
#934=DIRECTION('',(0.,0.,1.));
#935=DIRECTION('',(-6.19544098563145E-17,-1.,0.));
#936=DIRECTION('',(0.,0.,1.));
#937=DIRECTION('',(1.,-6.19544098563145E-17,0.));
#938=DIRECTION('',(6.19544098563145E-17,1.,0.));
#939=DIRECTION('',(-6.19544098563145E-17,-1.,1.25285584376103E-16));
#940=DIRECTION('',(1.,-6.19544098563145E-17,0.));
#941=DIRECTION('',(6.19544098563145E-17,1.,0.));
#942=DIRECTION('',(0.,0.,1.));
#943=DIRECTION('',(1.,-6.19544098563145E-17,0.));
#944=DIRECTION('',(6.19544098563145E-17,1.,0.));
#945=DIRECTION('',(-6.19544098563145E-17,-1.,0.));
#946=DIRECTION('',(0.,0.,-1.));
#947=DIRECTION('',(1.,-6.19544098563145E-17,0.));
#948=DIRECTION('',(6.19544098563145E-17,1.,0.));
#949=DIRECTION('',(-6.19544098563145E-17,-1.,0.));
#950=DIRECTION('',(0.,0.,-1.));
#951=DIRECTION('',(-6.19544098563145E-17,-1.,0.));
#952=DIRECTION('',(0.,0.,-1.));
#953=DIRECTION('',(-6.19544098563145E-17,-1.,0.));
#954=DIRECTION('',(1.,-6.19544098563145E-17,0.));
#955=DIRECTION('',(6.19544098563145E-17,1.,0.));
#956=DIRECTION('',(0.,0.,-1.));
#957=DIRECTION('',(1.,-6.19544098563145E-17,0.));
#958=DIRECTION('',(6.19544098563145E-17,1.,0.));
#959=DIRECTION('',(6.19544098563145E-17,1.,1.7347234759768E-16));
#960=DIRECTION('',(1.,-6.19544098563145E-17,0.));
#961=DIRECTION('',(6.19544098563145E-17,1.,0.));
#962=DIRECTION('',(0.,0.,1.));
#963=DIRECTION('',(1.,-6.19544098563145E-17,0.));
#964=DIRECTION('',(6.19544098563145E-17,1.,0.));
#965=DIRECTION('',(6.19544098563145E-17,1.,0.));
#966=DIRECTION('',(1.,-6.19544098563145E-17,0.));
#967=DIRECTION('',(6.19544098563145E-17,1.,0.));
#968=DIRECTION('',(0.,0.,-1.));
#969=DIRECTION('',(0.,-1.,0.));
#970=DIRECTION('',(0.,0.,-1.));
#971=DIRECTION('',(0.,-1.,0.));
#972=DIRECTION('',(0.,0.,-1.));
#973=DIRECTION('',(-1.,0.,0.));
#974=DIRECTION('',(0.,-1.,0.));
#975=DIRECTION('',(0.,0.,-1.));
#976=DIRECTION('',(-1.,0.,0.));
#977=DIRECTION('',(0.,0.,1.));
#978=DIRECTION('',(1.,0.,0.));
#979=DIRECTION('',(0.,0.,1.));
#980=DIRECTION('',(1.,0.,0.));
#981=DIRECTION('',(0.,0.,1.));
#982=DIRECTION('',(1.,0.,0.));
#983=DIRECTION('',(-1.,0.,0.));
#984=DIRECTION('',(0.,1.,-1.54197642309049E-16));
#985=DIRECTION('',(-1.,0.,0.));
#986=DIRECTION('',(-6.19544098563145E-17,-1.,0.));
#987=DIRECTION('',(-6.19544098563145E-17,-1.,0.));
#988=DIRECTION('',(1.,0.,0.));
#989=DIRECTION('',(0.,1.,1.7347234759768E-16));
#990=DIRECTION('',(1.,0.,0.));
#991=DIRECTION('',(0.,0.,1.));
#992=DIRECTION('',(1.,0.,0.));
#993=DIRECTION('',(0.,0.,1.));
#994=DIRECTION('',(1.,0.,0.));
#995=DIRECTION('',(0.,0.,1.));
#996=DIRECTION('',(1.,0.,0.));
#997=DIRECTION('',(-6.19544098563145E-17,-1.,0.));
#998=DIRECTION('',(-1.,0.,0.));
#999=DIRECTION('',(-6.19544098563145E-17,-1.,0.));
#1000=DIRECTION('',(0.,1.,0.));
#1001=DIRECTION('',(0.,0.,1.));
#1002=DIRECTION('',(0.,0.,-1.));
#1003=DIRECTION('',(-1.,0.,0.));
#1004=DIRECTION('',(-1.,0.,0.));
#1005=DIRECTION('',(0.,1.,0.));
#1006=DIRECTION('',(0.,0.,1.));
#1007=DIRECTION('',(-1.,0.,0.));
#1008=DIRECTION('',(0.,0.,-1.));
#1009=DIRECTION('',(-1.,0.,0.));
#1010=DIRECTION('',(0.,1.25285584376103E-16,1.));
#1011=DIRECTION('',(0.,-1.,1.25285584376103E-16));
#1012=DIRECTION('',(0.,1.,-1.25285584376103E-16));
#1013=DIRECTION('',(-1.,0.,0.));
#1014=DIRECTION('',(-1.,0.,0.));
#1015=DIRECTION('',(1.,0.,0.));
#1016=DIRECTION('',(0.,0.,-1.));
#1017=DIRECTION('',(0.,-1.,0.));
#1018=DIRECTION('',(0.,0.,-1.));
#1019=DIRECTION('',(1.,0.,0.));
#1020=DIRECTION('',(0.,0.,-1.));
#1021=DIRECTION('',(1.,0.,0.));
#1022=DIRECTION('',(0.,0.,-1.));
#1023=DIRECTION('',(1.,0.,0.));
#1024=DIRECTION('',(0.,0.,-1.));
#1025=DIRECTION('',(1.,0.,0.));
#1026=DIRECTION('',(0.,0.,-1.));
#1027=DIRECTION('',(0.,0.,-1.));
#1028=DIRECTION('',(0.,-1.,0.));
#1029=DIRECTION('',(0.,0.,-1.));
#1030=DIRECTION('',(0.,1.,0.));
#1031=DIRECTION('',(0.,0.,1.));
#1032=DIRECTION('',(1.,0.,0.));
#1033=DIRECTION('',(0.,0.,-1.));
#1034=DIRECTION('',(1.,0.,0.));
#1035=DIRECTION('',(0.,0.,-1.));
#1036=DIRECTION('',(1.,0.,0.));
#1037=DIRECTION('',(0.,0.,-1.));
#1038=DIRECTION('',(0.,-1.,0.));
#1039=DIRECTION('',(0.,0.,-1.));
#1040=DIRECTION('',(1.,0.,0.));
#1041=DIRECTION('',(0.,0.,-1.));
#1042=DIRECTION('',(1.,0.,0.));
#1043=DIRECTION('',(0.,0.,-1.));
#1044=DIRECTION('',(0.,0.,-1.));
#1045=DIRECTION('',(1.,0.,0.));
#1046=DIRECTION('',(0.,0.,-1.));
#1047=DIRECTION('',(0.,1.,0.));
#1048=DIRECTION('',(1.,0.,0.));
#1049=DIRECTION('',(0.,0.,-1.));
#1050=DIRECTION('',(0.,0.,1.));
#1051=DIRECTION('',(1.,0.,0.));
#1052=DIRECTION('',(0.,0.,-1.));
#1053=DIRECTION('',(0.,1.,1.7347234759768E-16));
#1054=DIRECTION('',(1.,0.,0.));
#1055=DIRECTION('',(0.,0.,-1.));
#1056=DIRECTION('',(0.,0.,-1.));
#1057=DIRECTION('',(0.,-1.,0.));
#1058=DIRECTION('',(0.,0.,-1.));
#1059=DIRECTION('',(0.,0.,1.));
#1060=DIRECTION('',(1.,0.,0.));
#1061=DIRECTION('',(0.,0.,1.));
#1062=DIRECTION('',(1.,0.,0.));
#1063=DIRECTION('',(0.,0.,1.));
#1064=DIRECTION('',(1.,0.,0.));
#1065=DIRECTION('',(0.,0.,1.));
#1066=DIRECTION('',(1.,0.,0.));
#1067=DIRECTION('',(0.,0.,1.));
#1068=DIRECTION('',(1.,0.,0.));
#1069=DIRECTION('',(0.,0.,1.));
#1070=DIRECTION('',(1.,0.,0.));
#1071=DIRECTION('',(0.,0.,1.));
#1072=DIRECTION('',(1.,0.,0.));
#1073=DIRECTION('',(0.,0.,1.));
#1074=DIRECTION('',(1.,0.,0.));
#1075=DIRECTION('',(0.,0.,1.));
#1076=DIRECTION('',(1.,0.,0.));
#1077=DIRECTION('',(0.,0.,1.));
#1078=DIRECTION('',(1.,0.,0.));
#1079=DIRECTION('',(0.,0.,1.));
#1080=DIRECTION('',(1.,0.,0.));
#1081=DIRECTION('',(0.,0.,1.));
#1082=DIRECTION('',(1.,0.,0.));
#1083=DIRECTION('',(0.,0.,1.));
#1084=DIRECTION('',(1.,0.,0.));
#1085=DIRECTION('',(1.,0.,0.));
#1086=DIRECTION('',(0.,0.,1.));
#1087=DIRECTION('',(1.,0.,0.));
#1088=DIRECTION('',(0.,-1.,0.));
#1089=DIRECTION('',(0.,0.,-1.));
#1090=DIRECTION('',(1.,0.,0.));
#1091=DIRECTION('',(0.,0.,-1.));
#1092=DIRECTION('',(1.,0.,0.));
#1093=DIRECTION('',(0.,1.7347234759768E-16,-1.));
#1094=DIRECTION('',(0.,1.,1.7347234759768E-16));
#1095=DIRECTION('',(1.,0.,0.));
#1096=DIRECTION('',(1.,0.,0.));
#1097=DIRECTION('',(0.,1.,0.));
#1098=DIRECTION('',(0.,0.,1.));
#1099=DIRECTION('',(1.,0.,0.));
#1100=DIRECTION('',(1.,0.,0.));
#1101=DIRECTION('',(0.,0.,-1.));
#1102=DIRECTION('',(-1.,0.,0.));
#1103=DIRECTION('',(1.,0.,0.));
#1104=DIRECTION('',(1.,0.,0.));
#1105=DIRECTION('',(0.,-1.,0.));
#1106=DIRECTION('',(0.,0.,-1.));
#1107=DIRECTION('',(1.,0.,0.));
#1108=DIRECTION('',(1.,0.,0.));
#1109=DIRECTION('',(0.,1.,0.));
#1110=DIRECTION('',(0.,0.,1.));
#1111=DIRECTION('',(0.,0.,-1.));
#1112=DIRECTION('',(0.,0.,-1.));
#1113=DIRECTION('',(-6.19544098563145E-17,-1.,0.));
#1114=DIRECTION('',(1.,-6.19544098563145E-17,0.));
#1115=DIRECTION('',(-0.707106781186548,-0.707106781186548,0.));
#1116=DIRECTION('',(0.707106781186548,-0.707106781186548,0.));
#1117=DIRECTION('',(6.19544098563145E-17,1.,0.));
#1118=DIRECTION('',(-1.,6.19544098563145E-17,0.));
#1119=DIRECTION('',(-0.707106781186548,0.707106781186548,0.));
#1120=DIRECTION('',(0.707106781186548,0.707106781186548,0.));
#1121=DIRECTION('',(-6.19544098563145E-17,-1.,0.));
#1122=DIRECTION('',(1.,-6.19544098563145E-17,0.));
#1123=DIRECTION('',(6.19544098563145E-17,1.,0.));
#1124=DIRECTION('',(-1.,6.19544098563145E-17,0.));
#1125=DIRECTION('',(1.,0.,0.));
#1126=DIRECTION('',(0.,0.,-1.));
#1127=DIRECTION('',(1.,0.,0.));
#1128=DIRECTION('',(0.,0.,-1.));
#1129=DIRECTION('',(-1.,0.,0.));
#1130=DIRECTION('',(0.,0.,1.));
#1131=DIRECTION('',(-1.,0.,0.));
#1132=DIRECTION('',(0.,0.,1.));
#1133=DIRECTION('',(1.,0.,0.));
#1134=DIRECTION('',(0.,0.,-1.));
#1135=DIRECTION('',(-1.,0.,0.));
#1136=DIRECTION('',(0.,0.,1.));
#1137=DIRECTION('',(-1.,0.,0.));
#1138=DIRECTION('',(0.,0.,1.));
#1139=DIRECTION('',(1.,0.,0.));
#1140=DIRECTION('',(0.,0.,-1.));
#1141=DIRECTION('',(1.,0.,0.));
#1142=DIRECTION('',(0.,0.,-1.));
#1143=DIRECTION('',(-1.,0.,0.));
#1144=DIRECTION('',(0.,0.,1.));
#1145=DIRECTION('',(0.,0.,1.));
#1146=DIRECTION('',(1.,0.,0.));
#1147=DIRECTION('',(0.,0.,-1.));
#1148=DIRECTION('',(-1.,0.,0.));
#1149=DIRECTION('',(0.,0.,-1.));
#1150=DIRECTION('',(-1.,0.,0.));
#1151=DIRECTION('',(0.,0.,1.));
#1152=DIRECTION('',(1.,0.,0.));
#1153=DIRECTION('',(0.,0.,-1.));
#1154=DIRECTION('',(-1.,0.,0.));
#1155=DIRECTION('',(0.,0.,-1.));
#1156=DIRECTION('',(-1.,0.,0.));
#1157=DIRECTION('',(0.,0.,-1.));
#1158=DIRECTION('',(-1.,0.,0.));
#1159=DIRECTION('',(0.,0.,-1.));
#1160=DIRECTION('',(-1.,0.,0.));
#1161=CARTESIAN_POINT('',(0.,0.,0.));
#1162=CARTESIAN_POINT('',(3.46944695195361E-18,0.028,0.012));
#1163=CARTESIAN_POINT('',(3.46944695195361E-18,0.028,0.012));
#1164=CARTESIAN_POINT('',(-0.0155,0.028,0.012));
#1165=CARTESIAN_POINT('',(0.0155,0.028,0.012));
#1166=CARTESIAN_POINT('',(0.0155,0.028,0.012));
#1167=CARTESIAN_POINT('',(0.0155,0.028,0.011));
#1168=CARTESIAN_POINT('',(3.46944695195361E-18,0.028,0.011));
#1169=CARTESIAN_POINT('',(-0.0155,0.028,0.011));
#1170=CARTESIAN_POINT('',(-0.0155,0.028,0.012));
#1171=CARTESIAN_POINT('',(-0.0165,0.,0.011));
#1172=CARTESIAN_POINT('',(-0.0165,0.028,0.002));
#1173=CARTESIAN_POINT('',(-0.0165,-0.028,0.002));
#1174=CARTESIAN_POINT('',(-0.0165,0.0278284271247462,0.002));
#1175=CARTESIAN_POINT('',(-0.0165,0.0278284271247462,0.002));
#1176=CARTESIAN_POINT('',(-0.0165,0.0278284271247462,0.01));
#1177=CARTESIAN_POINT('',(-0.0165,0.,0.01));
#1178=CARTESIAN_POINT('',(-0.0165,0.018,0.01));
#1179=CARTESIAN_POINT('',(-0.0165,0.018,0.011));
#1180=CARTESIAN_POINT('',(-0.0165,0.018,0.004));
#1181=CARTESIAN_POINT('',(-0.0165,0.017,0.004));
#1182=CARTESIAN_POINT('',(-0.0165,0.017,0.003));
#1183=CARTESIAN_POINT('',(-0.0165,-1.00228467500882E-18,0.003));
#1184=CARTESIAN_POINT('',(-0.0165,-0.026,0.003));
#1185=CARTESIAN_POINT('',(-0.0165,-0.026,0.004));
#1186=CARTESIAN_POINT('',(-0.0165,-0.027,0.004));
#1187=CARTESIAN_POINT('',(-0.0165,-0.027,0.011));
#1188=CARTESIAN_POINT('',(-0.0165,-0.027,0.01));
#1189=CARTESIAN_POINT('',(-0.0165,-0.026,0.01));
#1190=CARTESIAN_POINT('',(-0.0165,-0.026,0.011));
#1191=CARTESIAN_POINT('',(-0.0165,0.,0.011));
#1192=CARTESIAN_POINT('',(-0.0165,-0.028,0.011));
#1193=CARTESIAN_POINT('',(-0.0165,-0.028,0.011));
#1194=CARTESIAN_POINT('',(0.0165,0.,0.011));
#1195=CARTESIAN_POINT('',(0.0165,0.028,0.01));
#1196=CARTESIAN_POINT('',(0.0165,0.003,0.01));
#1197=CARTESIAN_POINT('',(0.0165,0.0278284271247462,0.01));
#1198=CARTESIAN_POINT('',(0.0165,0.0278284271247462,0.01));
#1199=CARTESIAN_POINT('',(0.0165,0.0278284271247462,0.002));
#1200=CARTESIAN_POINT('',(0.0165,0.,0.002));
#1201=CARTESIAN_POINT('',(0.0165,-0.028,0.002));
#1202=CARTESIAN_POINT('',(0.0165,-0.028,0.011));
#1203=CARTESIAN_POINT('',(0.0165,-0.028,0.011));
#1204=CARTESIAN_POINT('',(0.0165,0.,0.011));
#1205=CARTESIAN_POINT('',(0.0165,-0.026,0.011));
#1206=CARTESIAN_POINT('',(0.0165,-0.026,0.01));
#1207=CARTESIAN_POINT('',(0.0165,-0.027,0.01));
#1208=CARTESIAN_POINT('',(0.0165,-0.027,0.011));
#1209=CARTESIAN_POINT('',(0.0165,-0.027,0.004));
#1210=CARTESIAN_POINT('',(0.0165,-0.026,0.004));
#1211=CARTESIAN_POINT('',(0.0165,-0.026,0.003));
#1212=CARTESIAN_POINT('',(0.0165,1.38777878078144E-18,0.003));
#1213=CARTESIAN_POINT('',(0.0165,0.023,0.003));
#1214=CARTESIAN_POINT('',(0.0165,0.023,0.004));
#1215=CARTESIAN_POINT('',(0.0165,0.024,0.004));
#1216=CARTESIAN_POINT('',(0.0165,0.024,0.011));
#1217=CARTESIAN_POINT('',(0.0165,0.024,0.007));
#1218=CARTESIAN_POINT('',(0.0165,0.023,0.007));
#1219=CARTESIAN_POINT('',(0.0165,0.023,0.008));
#1220=CARTESIAN_POINT('',(0.0165,0.,0.008));
#1221=CARTESIAN_POINT('',(0.0165,0.004,0.008));
#1222=CARTESIAN_POINT('',(0.0165,0.004,0.009));
#1223=CARTESIAN_POINT('',(0.0165,0.003,0.009));
#1224=CARTESIAN_POINT('',(0.0165,0.003,0.011));
#1225=CARTESIAN_POINT('',(0.,-0.028,0.011));
#1226=CARTESIAN_POINT('',(0.0155,-0.028,0.002));
#1227=CARTESIAN_POINT('',(0.0155,-0.028,0.001));
#1228=CARTESIAN_POINT('',(0.,-0.028,0.001));
#1229=CARTESIAN_POINT('',(-0.0155,-0.028,0.001));
#1230=CARTESIAN_POINT('',(-0.0155,-0.028,0.002));
#1231=CARTESIAN_POINT('',(0.,-0.028,0.011));
#1232=CARTESIAN_POINT('',(0.,0.,0.011));
#1233=CARTESIAN_POINT('',(-0.0006,-0.0249,0.011));
#1234=CARTESIAN_POINT('',(0.001,-0.0249,0.011));
#1235=CARTESIAN_POINT('',(-0.0116,0.0226,0.011));
#1236=CARTESIAN_POINT('',(-0.01,0.0226,0.011));
#1237=CARTESIAN_POINT('',(0.,-0.026,0.011));
#1238=CARTESIAN_POINT('',(-0.0185,-0.026,0.011));
#1239=CARTESIAN_POINT('',(-0.0185,-0.0045,0.011));
#1240=CARTESIAN_POINT('',(-0.0185,0.017,0.011));
#1241=CARTESIAN_POINT('',(-0.0155,0.017,0.011));
#1242=CARTESIAN_POINT('',(-0.0155,0.017,0.011));
#1243=CARTESIAN_POINT('',(-0.0155,9.60293352772875E-19,0.011));
#1244=CARTESIAN_POINT('',(0.0155,0.003,0.011));
#1245=CARTESIAN_POINT('',(0.0155,0.002,0.011));
#1246=CARTESIAN_POINT('',(0.,0.002,0.011));
#1247=CARTESIAN_POINT('',(0.0185,0.002,0.011));
#1248=CARTESIAN_POINT('',(0.0185,-0.012,0.011));
#1249=CARTESIAN_POINT('',(0.0185,-0.026,0.011));
#1250=CARTESIAN_POINT('',(0.0165,-0.026,0.011));
#1251=CARTESIAN_POINT('',(0.,0.,0.001));
#1252=CARTESIAN_POINT('',(-0.0116,0.0226,0.001));
#1253=CARTESIAN_POINT('',(-0.0091,0.0226,0.001));
#1254=CARTESIAN_POINT('',(-0.0006,-0.0249,0.001));
#1255=CARTESIAN_POINT('',(0.0019,-0.0249,0.001));
#1256=CARTESIAN_POINT('',(0.0155,-9.60293352772875E-19,0.001));
#1257=CARTESIAN_POINT('',(0.0155,0.028,0.001));
#1258=CARTESIAN_POINT('',(3.46944695195361E-18,0.028,0.001));
#1259=CARTESIAN_POINT('',(-0.0155,0.028,0.001));
#1260=CARTESIAN_POINT('',(-0.0155,-0.028,0.001));
#1261=CARTESIAN_POINT('',(0.0065,-0.027,0.007));
#1262=CARTESIAN_POINT('',(-0.0185,-0.027,0.007));
#1263=CARTESIAN_POINT('',(-0.0185,-0.027,0.01));
#1264=CARTESIAN_POINT('',(-0.0185,-0.027,0.004));
#1265=CARTESIAN_POINT('',(0.0065,-0.027,0.01));
#1266=CARTESIAN_POINT('',(-0.0185,-0.027,0.004));
#1267=CARTESIAN_POINT('',(0.0065,0.018,0.007));
#1268=CARTESIAN_POINT('',(-0.0185,0.018,0.01));
#1269=CARTESIAN_POINT('',(-0.0185,0.018,0.01));
#1270=CARTESIAN_POINT('',(-0.0185,0.018,0.007));
#1271=CARTESIAN_POINT('',(-0.0185,0.018,0.004));
#1272=CARTESIAN_POINT('',(0.0065,0.018,0.004));
#1273=CARTESIAN_POINT('',(0.0065,-0.0045,0.003));
#1274=CARTESIAN_POINT('',(-0.0185,-0.0045,0.003));
#1275=CARTESIAN_POINT('',(-0.0185,-0.026,0.003));
#1276=CARTESIAN_POINT('',(-0.0185,0.017,0.003));
#1277=CARTESIAN_POINT('',(-0.0165,-0.026,0.003));
#1278=CARTESIAN_POINT('',(0.0065,0.017,0.003));
#1279=CARTESIAN_POINT('',(-0.0185,0.,0.012));
#1280=CARTESIAN_POINT('',(-0.0185,0.,0.));
#1281=CARTESIAN_POINT('',(-0.0185,0.025,0.));
#1282=CARTESIAN_POINT('',(-0.0185,-0.027,0.));
#1283=CARTESIAN_POINT('',(-0.0185,-0.027,0.012));
#1284=CARTESIAN_POINT('',(-0.0185,-0.026,0.004));
#1285=CARTESIAN_POINT('',(-0.0185,0.017,0.004));
#1286=CARTESIAN_POINT('',(-0.0185,0.017,0.01));
#1287=CARTESIAN_POINT('',(-0.0185,-0.026,0.01));
#1288=CARTESIAN_POINT('',(-0.0185,-0.027,0.012));
#1289=CARTESIAN_POINT('',(-0.0185,-0.027,0.012));
#1290=CARTESIAN_POINT('',(-0.0185,0.,0.012));
#1291=CARTESIAN_POINT('',(-0.0185,0.025,0.012));
#1292=CARTESIAN_POINT('',(-0.0185,0.025,0.));
#1293=CARTESIAN_POINT('',(3.46944695195361E-18,-0.03,0.012));
#1294=CARTESIAN_POINT('',(3.46944695195361E-18,-0.03,0.));
#1295=CARTESIAN_POINT('',(-0.0155,-0.03,0.));
#1296=CARTESIAN_POINT('',(0.0155,-0.03,0.));
#1297=CARTESIAN_POINT('',(0.0155,-0.03,0.012));
#1298=CARTESIAN_POINT('',(0.0155,-0.03,0.012));
#1299=CARTESIAN_POINT('',(3.46944695195361E-18,-0.03,0.012));
#1300=CARTESIAN_POINT('',(-0.0155,-0.03,0.012));
#1301=CARTESIAN_POINT('',(-0.0155,-0.03,0.012));
#1302=CARTESIAN_POINT('',(0.0185,0.,0.012));
#1303=CARTESIAN_POINT('',(0.0185,0.,0.012));
#1304=CARTESIAN_POINT('',(0.0185,0.025,0.012));
#1305=CARTESIAN_POINT('',(0.0185,-0.027,0.012));
#1306=CARTESIAN_POINT('',(0.0185,-0.027,0.));
#1307=CARTESIAN_POINT('',(0.0185,-0.027,0.01));
#1308=CARTESIAN_POINT('',(0.0185,-0.026,0.01));
#1309=CARTESIAN_POINT('',(0.0185,0.002,0.01));
#1310=CARTESIAN_POINT('',(0.0185,0.003,0.01));
#1311=CARTESIAN_POINT('',(0.0185,0.003,0.0095));
#1312=CARTESIAN_POINT('',(0.0185,0.003,0.009));
#1313=CARTESIAN_POINT('',(0.0185,0.004,0.009));
#1314=CARTESIAN_POINT('',(0.0185,0.004,0.008));
#1315=CARTESIAN_POINT('',(0.0185,0.0135,0.008));
#1316=CARTESIAN_POINT('',(0.0185,0.023,0.008));
#1317=CARTESIAN_POINT('',(0.0185,0.023,0.007));
#1318=CARTESIAN_POINT('',(0.0185,0.024,0.007));
#1319=CARTESIAN_POINT('',(0.0185,0.024,0.0055));
#1320=CARTESIAN_POINT('',(0.0185,0.024,0.004));
#1321=CARTESIAN_POINT('',(0.0185,0.023,0.004));
#1322=CARTESIAN_POINT('',(0.0185,0.023,0.003));
#1323=CARTESIAN_POINT('',(0.0185,-0.012,0.003));
#1324=CARTESIAN_POINT('',(0.0185,-0.026,0.003));
#1325=CARTESIAN_POINT('',(0.0185,-0.026,0.004));
#1326=CARTESIAN_POINT('',(0.0185,-0.027,0.004));
#1327=CARTESIAN_POINT('',(0.0185,-0.027,0.));
#1328=CARTESIAN_POINT('',(0.0185,-0.027,0.));
#1329=CARTESIAN_POINT('',(0.0185,0.,0.));
#1330=CARTESIAN_POINT('',(0.0185,0.025,0.));
#1331=CARTESIAN_POINT('',(0.0185,0.025,0.012));
#1332=CARTESIAN_POINT('',(0.,0.,0.012));
#1333=CARTESIAN_POINT('',(-0.0006,-0.0249,0.012));
#1334=CARTESIAN_POINT('',(0.001,-0.0249,0.012));
#1335=CARTESIAN_POINT('',(-0.0116,0.0226,0.012));
#1336=CARTESIAN_POINT('',(-0.01,0.0226,0.012));
#1337=CARTESIAN_POINT('',(0.0155,-0.027,0.012));
#1338=CARTESIAN_POINT('',(0.0155,0.025,0.012));
#1339=CARTESIAN_POINT('',(-0.0155,0.025,0.012));
#1340=CARTESIAN_POINT('',(-0.0155,-0.027,0.012));
#1341=CARTESIAN_POINT('',(0.,0.,0.));
#1342=CARTESIAN_POINT('',(-0.0116,0.0226,0.));
#1343=CARTESIAN_POINT('',(-0.0091,0.0226,0.));
#1344=CARTESIAN_POINT('',(-0.0006,-0.0249,0.));
#1345=CARTESIAN_POINT('',(0.0019,-0.0249,0.));
#1346=CARTESIAN_POINT('',(0.0155,-0.027,0.));
#1347=CARTESIAN_POINT('',(-0.0155,-0.027,0.));
#1348=CARTESIAN_POINT('',(-0.0155,0.025,0.));
#1349=CARTESIAN_POINT('',(-0.0155,0.028,0.));
#1350=CARTESIAN_POINT('',(3.46944695195361E-18,0.028,0.));
#1351=CARTESIAN_POINT('',(0.0155,0.028,0.));
#1352=CARTESIAN_POINT('',(0.0155,0.025,0.));
#1353=CARTESIAN_POINT('',(-0.0065,-0.027,0.007));
#1354=CARTESIAN_POINT('',(0.0185,-0.027,0.01));
#1355=CARTESIAN_POINT('',(0.0185,-0.027,0.007));
#1356=CARTESIAN_POINT('',(0.0165,-0.027,0.004));
#1357=CARTESIAN_POINT('',(-0.0065,-0.012,0.003));
#1358=CARTESIAN_POINT('',(0.0185,-0.026,0.003));
#1359=CARTESIAN_POINT('',(0.0165,0.023,0.003));
#1360=CARTESIAN_POINT('',(-0.0065,0.024,0.0055));
#1361=CARTESIAN_POINT('',(-0.0065,0.024,0.007));
#1362=CARTESIAN_POINT('',(0.0185,0.024,0.004));
#1363=CARTESIAN_POINT('',(-0.0065,0.0135,0.008));
#1364=CARTESIAN_POINT('',(-0.0065,0.004,0.008));
#1365=CARTESIAN_POINT('',(-0.0065,0.023,0.008));
#1366=CARTESIAN_POINT('',(-0.0065,0.003,0.0095));
#1367=CARTESIAN_POINT('',(-0.0065,0.003,0.009));
#1368=CARTESIAN_POINT('',(-0.0065,0.003,0.01));
#1369=CARTESIAN_POINT('',(3.46944695195361E-18,0.028,0.012));
#1370=CARTESIAN_POINT('',(0.0155,0.028,0.012));
#1371=CARTESIAN_POINT('',(-0.0155,0.028,0.012));
#1372=CARTESIAN_POINT('',(-0.0155,-6.19544098563146E-20,0.01));
#1373=CARTESIAN_POINT('',(-0.0165,0.0278284271247462,0.01));
#1374=CARTESIAN_POINT('',(-0.0165,0.0278284271247462,0.0102661906355031));
#1375=CARTESIAN_POINT('',(-0.0162815914946937,0.0279166258512977,0.0107806544012642));
#1376=CARTESIAN_POINT('',(-0.0157661715179041,0.028,0.011));
#1377=CARTESIAN_POINT('',(-0.0155,0.028,0.011));
#1378=CARTESIAN_POINT('',(-0.0155,0.017,0.01));
#1379=CARTESIAN_POINT('',(0.0155,-9.60293352772875E-19,0.01));
#1380=CARTESIAN_POINT('',(0.0155,0.028,0.011));
#1381=CARTESIAN_POINT('',(0.0157661732168924,0.028,0.011));
#1382=CARTESIAN_POINT('',(0.0162810502543945,0.0279167569343071,0.0107811982743254));
#1383=CARTESIAN_POINT('',(0.0165,0.0278284271247462,0.0102661839668411));
#1384=CARTESIAN_POINT('',(0.0165,0.0278284271247462,0.01));
#1385=CARTESIAN_POINT('',(0.0155,0.002,0.01));
#1386=CARTESIAN_POINT('',(0.0155,6.19544098563146E-20,0.002));
#1387=CARTESIAN_POINT('',(0.0165,0.0278284271247462,0.002));
#1388=CARTESIAN_POINT('',(0.0165,0.0278284271247462,0.00173380936449686));
#1389=CARTESIAN_POINT('',(0.0162815914946937,0.0279166258512977,0.00121934559873576));
#1390=CARTESIAN_POINT('',(0.0157661715179041,0.028,0.001));
#1391=CARTESIAN_POINT('',(0.0155,0.028,0.001));
#1392=CARTESIAN_POINT('',(-0.0155,9.60293352772875E-19,0.002));
#1393=CARTESIAN_POINT('',(-0.0155,0.028,0.001));
#1394=CARTESIAN_POINT('',(-0.0157661732168924,0.028,0.001));
#1395=CARTESIAN_POINT('',(-0.0162810502543945,0.0279167569343071,0.00121880172567459));
#1396=CARTESIAN_POINT('',(-0.0165,0.0278284271247462,0.00173381603315894));
#1397=CARTESIAN_POINT('',(-0.0165,0.0278284271247462,0.002));
#1398=CARTESIAN_POINT('',(-0.0065,0.004,0.009));
#1399=CARTESIAN_POINT('',(0.,0.002,0.01));
#1400=CARTESIAN_POINT('',(-0.0065,-0.026,0.01));
#1401=CARTESIAN_POINT('',(-0.0065,-0.026,0.004));
#1402=CARTESIAN_POINT('',(-0.0065,0.023,0.007));
#1403=CARTESIAN_POINT('',(-0.0065,0.023,0.004));
#1404=CARTESIAN_POINT('',(0.,-0.026,0.01));
#1405=CARTESIAN_POINT('',(0.0065,-0.026,0.004));
#1406=CARTESIAN_POINT('',(0.0065,0.017,0.01));
#1407=CARTESIAN_POINT('',(0.0065,0.017,0.004));
#1408=CARTESIAN_POINT('',(0.0155,-0.027,0.012));
#1409=CARTESIAN_POINT('',(0.0155,0.025,0.012));
#1410=CARTESIAN_POINT('',(-0.0155,-0.027,0.012));
#1411=CARTESIAN_POINT('',(-0.0155,0.025,0.012));
#1412=CARTESIAN_POINT('',(-0.0116,0.0226,0.025));
#1413=CARTESIAN_POINT('',(-0.0006,-0.0249,0.025));
#1414=CARTESIAN_POINT('',(-0.0006,-0.0249,0.0025));
#1415=CARTESIAN_POINT('',(-0.0116,0.0226,0.0025));
#1416=MECHANICAL_DESIGN_GEOMETRIC_PRESENTATION_REPRESENTATION('',(#831),
#1417);
#1417=(
GEOMETRIC_REPRESENTATION_CONTEXT(3)
GLOBAL_UNCERTAINTY_ASSIGNED_CONTEXT((#1418))
GLOBAL_UNIT_ASSIGNED_CONTEXT((#1421,#1420,#1419))
REPRESENTATION_CONTEXT('Part 231','TOP_LEVEL_ASSEMBLY_PART')
);
#1418=UNCERTAINTY_MEASURE_WITH_UNIT(LENGTH_MEASURE(2.E-5),#1421,
'DISTANCE_ACCURACY_VALUE','Maximum Tolerance applied to model');
#1419=(
NAMED_UNIT(*)
SI_UNIT($,.STERADIAN.)
SOLID_ANGLE_UNIT()
);
#1420=(
NAMED_UNIT(*)
PLANE_ANGLE_UNIT()
SI_UNIT($,.RADIAN.)
);
#1421=(
LENGTH_UNIT()
NAMED_UNIT(*)
SI_UNIT($,.METRE.)
);
#1422=PRODUCT_DEFINITION_SHAPE('','',#1423);
#1423=PRODUCT_DEFINITION('','',#1425,#1424);
#1424=PRODUCT_DEFINITION_CONTEXT('',#1431,'design');
#1425=PRODUCT_DEFINITION_FORMATION_WITH_SPECIFIED_SOURCE('','',#1427,
 .NOT_KNOWN.);
#1426=PRODUCT_RELATED_PRODUCT_CATEGORY('','',(#1427));
#1427=PRODUCT('Part 231','Part 231','Part 231',(#1429));
#1428=PRODUCT_CATEGORY('','');
#1429=PRODUCT_CONTEXT('',#1431,'mechanical');
#1430=APPLICATION_PROTOCOL_DEFINITION('international standard',
'ap242_managed_model_based_3d_engineering',2020,#1431);
#1431=APPLICATION_CONTEXT('managed model based 3d engineering');
ENDSEC;
END-ISO-10303-21;
